<?xml version="1.0" encoding="utf-8" standalone="no"?>
<!DOCTYPE svg PUBLIC "-//W3C//DTD SVG 1.1//EN"
  "http://www.w3.org/Graphics/SVG/1.1/DTD/svg11.dtd">
<svg xmlns:xlink="http://www.w3.org/1999/xlink" width="1152pt" height="648pt" viewBox="0 0 1152 648" xmlns="http://www.w3.org/2000/svg" version="1.1">
 <metadata>
  <rdf:RDF xmlns:dc="http://purl.org/dc/elements/1.1/" xmlns:cc="http://creativecommons.org/ns#" xmlns:rdf="http://www.w3.org/1999/02/22-rdf-syntax-ns#">
   <cc:Work>
    <dc:type rdf:resource="http://purl.org/dc/dcmitype/StillImage"/>
    <dc:date>2023-08-18T19:19:42.301465</dc:date>
    <dc:format>image/svg+xml</dc:format>
    <dc:creator>
     <cc:Agent>
      <dc:title>Matplotlib v3.6.0, https://matplotlib.org/</dc:title>
     </cc:Agent>
    </dc:creator>
   </cc:Work>
  </rdf:RDF>
 </metadata>
 <defs>
  <style type="text/css">*{stroke-linejoin: round; stroke-linecap: butt}</style>
 </defs>
 <g id="figure_1">
  <g id="patch_1">
   <path d="M 0 648 
L 1152 648 
L 1152 0 
L 0 0 
z
" style="fill: #ffffff"/>
  </g>
  <g id="axes_1">
   <g id="patch_2">
    <path d="M 144 576.72 
L 1036.8 576.72 
L 1036.8 77.76 
L 144 77.76 
z
" style="fill: #ffffff"/>
   </g>
   <g id="matplotlib.axis_1">
    <g id="xtick_1">
     <g id="line2d_1">
      <path d="M 252.218182 576.72 
L 252.218182 77.76 
" clip-path="url(#p870cf6150c)" style="fill: none; stroke: #cccccc; stroke-width: 0.8; stroke-linecap: round"/>
     </g>
     <g id="text_1">
      <!-- −75 -->
      <g style="fill: #262626" transform="translate(241.665838 591.318438) scale(0.1 -0.1)">
       <defs>
        <path id="DejaVuSans-2212" d="M 678 2272 
L 4684 2272 
L 4684 1741 
L 678 1741 
L 678 2272 
z
" transform="scale(0.015625)"/>
        <path id="DejaVuSans-37" d="M 525 4666 
L 3525 4666 
L 3525 4397 
L 1831 0 
L 1172 0 
L 2766 4134 
L 525 4134 
L 525 4666 
z
" transform="scale(0.015625)"/>
        <path id="DejaVuSans-35" d="M 691 4666 
L 3169 4666 
L 3169 4134 
L 1269 4134 
L 1269 2991 
Q 1406 3038 1543 3061 
Q 1681 3084 1819 3084 
Q 2600 3084 3056 2656 
Q 3513 2228 3513 1497 
Q 3513 744 3044 326 
Q 2575 -91 1722 -91 
Q 1428 -91 1123 -41 
Q 819 9 494 109 
L 494 744 
Q 775 591 1075 516 
Q 1375 441 1709 441 
Q 2250 441 2565 725 
Q 2881 1009 2881 1497 
Q 2881 1984 2565 2268 
Q 2250 2553 1709 2553 
Q 1456 2553 1204 2497 
Q 953 2441 691 2322 
L 691 4666 
z
" transform="scale(0.015625)"/>
       </defs>
       <use xlink:href="#DejaVuSans-2212"/>
       <use xlink:href="#DejaVuSans-37" x="83.789062"/>
       <use xlink:href="#DejaVuSans-35" x="147.412109"/>
      </g>
     </g>
    </g>
    <g id="xtick_2">
     <g id="line2d_2">
      <path d="M 364.945455 576.72 
L 364.945455 77.76 
" clip-path="url(#p870cf6150c)" style="fill: none; stroke: #cccccc; stroke-width: 0.8; stroke-linecap: round"/>
     </g>
     <g id="text_2">
      <!-- −50 -->
      <g style="fill: #262626" transform="translate(354.393111 591.318438) scale(0.1 -0.1)">
       <defs>
        <path id="DejaVuSans-30" d="M 2034 4250 
Q 1547 4250 1301 3770 
Q 1056 3291 1056 2328 
Q 1056 1369 1301 889 
Q 1547 409 2034 409 
Q 2525 409 2770 889 
Q 3016 1369 3016 2328 
Q 3016 3291 2770 3770 
Q 2525 4250 2034 4250 
z
M 2034 4750 
Q 2819 4750 3233 4129 
Q 3647 3509 3647 2328 
Q 3647 1150 3233 529 
Q 2819 -91 2034 -91 
Q 1250 -91 836 529 
Q 422 1150 422 2328 
Q 422 3509 836 4129 
Q 1250 4750 2034 4750 
z
" transform="scale(0.015625)"/>
       </defs>
       <use xlink:href="#DejaVuSans-2212"/>
       <use xlink:href="#DejaVuSans-35" x="83.789062"/>
       <use xlink:href="#DejaVuSans-30" x="147.412109"/>
      </g>
     </g>
    </g>
    <g id="xtick_3">
     <g id="line2d_3">
      <path d="M 477.672727 576.72 
L 477.672727 77.76 
" clip-path="url(#p870cf6150c)" style="fill: none; stroke: #cccccc; stroke-width: 0.8; stroke-linecap: round"/>
     </g>
     <g id="text_3">
      <!-- −25 -->
      <g style="fill: #262626" transform="translate(467.120384 591.318438) scale(0.1 -0.1)">
       <defs>
        <path id="DejaVuSans-32" d="M 1228 531 
L 3431 531 
L 3431 0 
L 469 0 
L 469 531 
Q 828 903 1448 1529 
Q 2069 2156 2228 2338 
Q 2531 2678 2651 2914 
Q 2772 3150 2772 3378 
Q 2772 3750 2511 3984 
Q 2250 4219 1831 4219 
Q 1534 4219 1204 4116 
Q 875 4013 500 3803 
L 500 4441 
Q 881 4594 1212 4672 
Q 1544 4750 1819 4750 
Q 2544 4750 2975 4387 
Q 3406 4025 3406 3419 
Q 3406 3131 3298 2873 
Q 3191 2616 2906 2266 
Q 2828 2175 2409 1742 
Q 1991 1309 1228 531 
z
" transform="scale(0.015625)"/>
       </defs>
       <use xlink:href="#DejaVuSans-2212"/>
       <use xlink:href="#DejaVuSans-32" x="83.789062"/>
       <use xlink:href="#DejaVuSans-35" x="147.412109"/>
      </g>
     </g>
    </g>
    <g id="xtick_4">
     <g id="line2d_4">
      <path d="M 590.4 576.72 
L 590.4 77.76 
" clip-path="url(#p870cf6150c)" style="fill: none; stroke: #cccccc; stroke-width: 0.8; stroke-linecap: round"/>
     </g>
     <g id="text_4">
      <!-- 0 -->
      <g style="fill: #262626" transform="translate(587.21875 591.318438) scale(0.1 -0.1)">
       <use xlink:href="#DejaVuSans-30"/>
      </g>
     </g>
    </g>
    <g id="xtick_5">
     <g id="line2d_5">
      <path d="M 703.127273 576.72 
L 703.127273 77.76 
" clip-path="url(#p870cf6150c)" style="fill: none; stroke: #cccccc; stroke-width: 0.8; stroke-linecap: round"/>
     </g>
     <g id="text_5">
      <!-- 25 -->
      <g style="fill: #262626" transform="translate(696.764773 591.318438) scale(0.1 -0.1)">
       <use xlink:href="#DejaVuSans-32"/>
       <use xlink:href="#DejaVuSans-35" x="63.623047"/>
      </g>
     </g>
    </g>
    <g id="xtick_6">
     <g id="line2d_6">
      <path d="M 815.854545 576.72 
L 815.854545 77.76 
" clip-path="url(#p870cf6150c)" style="fill: none; stroke: #cccccc; stroke-width: 0.8; stroke-linecap: round"/>
     </g>
     <g id="text_6">
      <!-- 50 -->
      <g style="fill: #262626" transform="translate(809.492045 591.318438) scale(0.1 -0.1)">
       <use xlink:href="#DejaVuSans-35"/>
       <use xlink:href="#DejaVuSans-30" x="63.623047"/>
      </g>
     </g>
    </g>
    <g id="xtick_7">
     <g id="line2d_7">
      <path d="M 928.581818 576.72 
L 928.581818 77.76 
" clip-path="url(#p870cf6150c)" style="fill: none; stroke: #cccccc; stroke-width: 0.8; stroke-linecap: round"/>
     </g>
     <g id="text_7">
      <!-- 75 -->
      <g style="fill: #262626" transform="translate(922.219318 591.318438) scale(0.1 -0.1)">
       <use xlink:href="#DejaVuSans-37"/>
       <use xlink:href="#DejaVuSans-35" x="63.623047"/>
      </g>
     </g>
    </g>
    <g id="text_8">
     <!-- Latitude (°) -->
     <g style="fill: #262626" transform="translate(561.830469 604.996562) scale(0.1 -0.1)">
      <defs>
       <path id="DejaVuSans-4c" d="M 628 4666 
L 1259 4666 
L 1259 531 
L 3531 531 
L 3531 0 
L 628 0 
L 628 4666 
z
" transform="scale(0.015625)"/>
       <path id="DejaVuSans-61" d="M 2194 1759 
Q 1497 1759 1228 1600 
Q 959 1441 959 1056 
Q 959 750 1161 570 
Q 1363 391 1709 391 
Q 2188 391 2477 730 
Q 2766 1069 2766 1631 
L 2766 1759 
L 2194 1759 
z
M 3341 1997 
L 3341 0 
L 2766 0 
L 2766 531 
Q 2569 213 2275 61 
Q 1981 -91 1556 -91 
Q 1019 -91 701 211 
Q 384 513 384 1019 
Q 384 1609 779 1909 
Q 1175 2209 1959 2209 
L 2766 2209 
L 2766 2266 
Q 2766 2663 2505 2880 
Q 2244 3097 1772 3097 
Q 1472 3097 1187 3025 
Q 903 2953 641 2809 
L 641 3341 
Q 956 3463 1253 3523 
Q 1550 3584 1831 3584 
Q 2591 3584 2966 3190 
Q 3341 2797 3341 1997 
z
" transform="scale(0.015625)"/>
       <path id="DejaVuSans-74" d="M 1172 4494 
L 1172 3500 
L 2356 3500 
L 2356 3053 
L 1172 3053 
L 1172 1153 
Q 1172 725 1289 603 
Q 1406 481 1766 481 
L 2356 481 
L 2356 0 
L 1766 0 
Q 1100 0 847 248 
Q 594 497 594 1153 
L 594 3053 
L 172 3053 
L 172 3500 
L 594 3500 
L 594 4494 
L 1172 4494 
z
" transform="scale(0.015625)"/>
       <path id="DejaVuSans-69" d="M 603 3500 
L 1178 3500 
L 1178 0 
L 603 0 
L 603 3500 
z
M 603 4863 
L 1178 4863 
L 1178 4134 
L 603 4134 
L 603 4863 
z
" transform="scale(0.015625)"/>
       <path id="DejaVuSans-75" d="M 544 1381 
L 544 3500 
L 1119 3500 
L 1119 1403 
Q 1119 906 1312 657 
Q 1506 409 1894 409 
Q 2359 409 2629 706 
Q 2900 1003 2900 1516 
L 2900 3500 
L 3475 3500 
L 3475 0 
L 2900 0 
L 2900 538 
Q 2691 219 2414 64 
Q 2138 -91 1772 -91 
Q 1169 -91 856 284 
Q 544 659 544 1381 
z
M 1991 3584 
L 1991 3584 
z
" transform="scale(0.015625)"/>
       <path id="DejaVuSans-64" d="M 2906 2969 
L 2906 4863 
L 3481 4863 
L 3481 0 
L 2906 0 
L 2906 525 
Q 2725 213 2448 61 
Q 2172 -91 1784 -91 
Q 1150 -91 751 415 
Q 353 922 353 1747 
Q 353 2572 751 3078 
Q 1150 3584 1784 3584 
Q 2172 3584 2448 3432 
Q 2725 3281 2906 2969 
z
M 947 1747 
Q 947 1113 1208 752 
Q 1469 391 1925 391 
Q 2381 391 2643 752 
Q 2906 1113 2906 1747 
Q 2906 2381 2643 2742 
Q 2381 3103 1925 3103 
Q 1469 3103 1208 2742 
Q 947 2381 947 1747 
z
" transform="scale(0.015625)"/>
       <path id="DejaVuSans-65" d="M 3597 1894 
L 3597 1613 
L 953 1613 
Q 991 1019 1311 708 
Q 1631 397 2203 397 
Q 2534 397 2845 478 
Q 3156 559 3463 722 
L 3463 178 
Q 3153 47 2828 -22 
Q 2503 -91 2169 -91 
Q 1331 -91 842 396 
Q 353 884 353 1716 
Q 353 2575 817 3079 
Q 1281 3584 2069 3584 
Q 2775 3584 3186 3129 
Q 3597 2675 3597 1894 
z
M 3022 2063 
Q 3016 2534 2758 2815 
Q 2500 3097 2075 3097 
Q 1594 3097 1305 2825 
Q 1016 2553 972 2059 
L 3022 2063 
z
" transform="scale(0.015625)"/>
       <path id="DejaVuSans-20" transform="scale(0.015625)"/>
       <path id="DejaVuSans-28" d="M 1984 4856 
Q 1566 4138 1362 3434 
Q 1159 2731 1159 2009 
Q 1159 1288 1364 580 
Q 1569 -128 1984 -844 
L 1484 -844 
Q 1016 -109 783 600 
Q 550 1309 550 2009 
Q 550 2706 781 3412 
Q 1013 4119 1484 4856 
L 1984 4856 
z
" transform="scale(0.015625)"/>
       <path id="DejaVuSans-b0" d="M 1600 4347 
Q 1350 4347 1178 4173 
Q 1006 4000 1006 3750 
Q 1006 3503 1178 3333 
Q 1350 3163 1600 3163 
Q 1850 3163 2022 3333 
Q 2194 3503 2194 3750 
Q 2194 3997 2020 4172 
Q 1847 4347 1600 4347 
z
M 1600 4750 
Q 1800 4750 1984 4673 
Q 2169 4597 2303 4453 
Q 2447 4313 2519 4134 
Q 2591 3956 2591 3750 
Q 2591 3338 2302 3052 
Q 2013 2766 1594 2766 
Q 1172 2766 890 3047 
Q 609 3328 609 3750 
Q 609 4169 896 4459 
Q 1184 4750 1600 4750 
z
" transform="scale(0.015625)"/>
       <path id="DejaVuSans-29" d="M 513 4856 
L 1013 4856 
Q 1481 4119 1714 3412 
Q 1947 2706 1947 2009 
Q 1947 1309 1714 600 
Q 1481 -109 1013 -844 
L 513 -844 
Q 928 -128 1133 580 
Q 1338 1288 1338 2009 
Q 1338 2731 1133 3434 
Q 928 4138 513 4856 
z
" transform="scale(0.015625)"/>
      </defs>
      <use xlink:href="#DejaVuSans-4c"/>
      <use xlink:href="#DejaVuSans-61" x="55.712891"/>
      <use xlink:href="#DejaVuSans-74" x="116.992188"/>
      <use xlink:href="#DejaVuSans-69" x="156.201172"/>
      <use xlink:href="#DejaVuSans-74" x="183.984375"/>
      <use xlink:href="#DejaVuSans-75" x="223.193359"/>
      <use xlink:href="#DejaVuSans-64" x="286.572266"/>
      <use xlink:href="#DejaVuSans-65" x="350.048828"/>
      <use xlink:href="#DejaVuSans-20" x="411.572266"/>
      <use xlink:href="#DejaVuSans-28" x="443.359375"/>
      <use xlink:href="#DejaVuSans-b0" x="482.373047"/>
      <use xlink:href="#DejaVuSans-29" x="532.373047"/>
     </g>
    </g>
   </g>
   <g id="matplotlib.axis_2">
    <g id="ytick_1">
     <g id="line2d_8">
      <path d="M 144 523.723341 
L 1036.8 523.723341 
" clip-path="url(#p870cf6150c)" style="fill: none; stroke: #cccccc; stroke-width: 0.8; stroke-linecap: round"/>
     </g>
     <g id="text_9">
      <!-- −0.0015 -->
      <g style="fill: #262626" transform="translate(93.629687 527.522559) scale(0.1 -0.1)">
       <defs>
        <path id="DejaVuSans-2e" d="M 684 794 
L 1344 794 
L 1344 0 
L 684 0 
L 684 794 
z
" transform="scale(0.015625)"/>
        <path id="DejaVuSans-31" d="M 794 531 
L 1825 531 
L 1825 4091 
L 703 3866 
L 703 4441 
L 1819 4666 
L 2450 4666 
L 2450 531 
L 3481 531 
L 3481 0 
L 794 0 
L 794 531 
z
" transform="scale(0.015625)"/>
       </defs>
       <use xlink:href="#DejaVuSans-2212"/>
       <use xlink:href="#DejaVuSans-30" x="83.789062"/>
       <use xlink:href="#DejaVuSans-2e" x="147.412109"/>
       <use xlink:href="#DejaVuSans-30" x="179.199219"/>
       <use xlink:href="#DejaVuSans-30" x="242.822266"/>
       <use xlink:href="#DejaVuSans-31" x="306.445312"/>
       <use xlink:href="#DejaVuSans-35" x="370.068359"/>
      </g>
     </g>
    </g>
    <g id="ytick_2">
     <g id="line2d_9">
      <path d="M 144 458.228894 
L 1036.8 458.228894 
" clip-path="url(#p870cf6150c)" style="fill: none; stroke: #cccccc; stroke-width: 0.8; stroke-linecap: round"/>
     </g>
     <g id="text_10">
      <!-- −0.0010 -->
      <g style="fill: #262626" transform="translate(93.629687 462.028112) scale(0.1 -0.1)">
       <use xlink:href="#DejaVuSans-2212"/>
       <use xlink:href="#DejaVuSans-30" x="83.789062"/>
       <use xlink:href="#DejaVuSans-2e" x="147.412109"/>
       <use xlink:href="#DejaVuSans-30" x="179.199219"/>
       <use xlink:href="#DejaVuSans-30" x="242.822266"/>
       <use xlink:href="#DejaVuSans-31" x="306.445312"/>
       <use xlink:href="#DejaVuSans-30" x="370.068359"/>
      </g>
     </g>
    </g>
    <g id="ytick_3">
     <g id="line2d_10">
      <path d="M 144 392.734447 
L 1036.8 392.734447 
" clip-path="url(#p870cf6150c)" style="fill: none; stroke: #cccccc; stroke-width: 0.8; stroke-linecap: round"/>
     </g>
     <g id="text_11">
      <!-- −0.0005 -->
      <g style="fill: #262626" transform="translate(93.629687 396.533666) scale(0.1 -0.1)">
       <use xlink:href="#DejaVuSans-2212"/>
       <use xlink:href="#DejaVuSans-30" x="83.789062"/>
       <use xlink:href="#DejaVuSans-2e" x="147.412109"/>
       <use xlink:href="#DejaVuSans-30" x="179.199219"/>
       <use xlink:href="#DejaVuSans-30" x="242.822266"/>
       <use xlink:href="#DejaVuSans-30" x="306.445312"/>
       <use xlink:href="#DejaVuSans-35" x="370.068359"/>
      </g>
     </g>
    </g>
    <g id="ytick_4">
     <g id="line2d_11">
      <path d="M 144 327.24 
L 1036.8 327.24 
" clip-path="url(#p870cf6150c)" style="fill: none; stroke: #cccccc; stroke-width: 0.8; stroke-linecap: round"/>
     </g>
     <g id="text_12">
      <!-- 0.0000 -->
      <g style="fill: #262626" transform="translate(102.009375 331.039219) scale(0.1 -0.1)">
       <use xlink:href="#DejaVuSans-30"/>
       <use xlink:href="#DejaVuSans-2e" x="63.623047"/>
       <use xlink:href="#DejaVuSans-30" x="95.410156"/>
       <use xlink:href="#DejaVuSans-30" x="159.033203"/>
       <use xlink:href="#DejaVuSans-30" x="222.65625"/>
       <use xlink:href="#DejaVuSans-30" x="286.279297"/>
      </g>
     </g>
    </g>
    <g id="ytick_5">
     <g id="line2d_12">
      <path d="M 144 261.745553 
L 1036.8 261.745553 
" clip-path="url(#p870cf6150c)" style="fill: none; stroke: #cccccc; stroke-width: 0.8; stroke-linecap: round"/>
     </g>
     <g id="text_13">
      <!-- 0.0005 -->
      <g style="fill: #262626" transform="translate(102.009375 265.544772) scale(0.1 -0.1)">
       <use xlink:href="#DejaVuSans-30"/>
       <use xlink:href="#DejaVuSans-2e" x="63.623047"/>
       <use xlink:href="#DejaVuSans-30" x="95.410156"/>
       <use xlink:href="#DejaVuSans-30" x="159.033203"/>
       <use xlink:href="#DejaVuSans-30" x="222.65625"/>
       <use xlink:href="#DejaVuSans-35" x="286.279297"/>
      </g>
     </g>
    </g>
    <g id="ytick_6">
     <g id="line2d_13">
      <path d="M 144 196.251106 
L 1036.8 196.251106 
" clip-path="url(#p870cf6150c)" style="fill: none; stroke: #cccccc; stroke-width: 0.8; stroke-linecap: round"/>
     </g>
     <g id="text_14">
      <!-- 0.0010 -->
      <g style="fill: #262626" transform="translate(102.009375 200.050325) scale(0.1 -0.1)">
       <use xlink:href="#DejaVuSans-30"/>
       <use xlink:href="#DejaVuSans-2e" x="63.623047"/>
       <use xlink:href="#DejaVuSans-30" x="95.410156"/>
       <use xlink:href="#DejaVuSans-30" x="159.033203"/>
       <use xlink:href="#DejaVuSans-31" x="222.65625"/>
       <use xlink:href="#DejaVuSans-30" x="286.279297"/>
      </g>
     </g>
    </g>
    <g id="ytick_7">
     <g id="line2d_14">
      <path d="M 144 130.756659 
L 1036.8 130.756659 
" clip-path="url(#p870cf6150c)" style="fill: none; stroke: #cccccc; stroke-width: 0.8; stroke-linecap: round"/>
     </g>
     <g id="text_15">
      <!-- 0.0015 -->
      <g style="fill: #262626" transform="translate(102.009375 134.555878) scale(0.1 -0.1)">
       <use xlink:href="#DejaVuSans-30"/>
       <use xlink:href="#DejaVuSans-2e" x="63.623047"/>
       <use xlink:href="#DejaVuSans-30" x="95.410156"/>
       <use xlink:href="#DejaVuSans-30" x="159.033203"/>
       <use xlink:href="#DejaVuSans-31" x="222.65625"/>
       <use xlink:href="#DejaVuSans-35" x="286.279297"/>
      </g>
     </g>
    </g>
    <g id="text_16">
     <!-- Alpha (°) -->
     <g style="fill: #262626" transform="translate(87.55 349.447031) rotate(-90) scale(0.1 -0.1)">
      <defs>
       <path id="DejaVuSans-41" d="M 2188 4044 
L 1331 1722 
L 3047 1722 
L 2188 4044 
z
M 1831 4666 
L 2547 4666 
L 4325 0 
L 3669 0 
L 3244 1197 
L 1141 1197 
L 716 0 
L 50 0 
L 1831 4666 
z
" transform="scale(0.015625)"/>
       <path id="DejaVuSans-6c" d="M 603 4863 
L 1178 4863 
L 1178 0 
L 603 0 
L 603 4863 
z
" transform="scale(0.015625)"/>
       <path id="DejaVuSans-70" d="M 1159 525 
L 1159 -1331 
L 581 -1331 
L 581 3500 
L 1159 3500 
L 1159 2969 
Q 1341 3281 1617 3432 
Q 1894 3584 2278 3584 
Q 2916 3584 3314 3078 
Q 3713 2572 3713 1747 
Q 3713 922 3314 415 
Q 2916 -91 2278 -91 
Q 1894 -91 1617 61 
Q 1341 213 1159 525 
z
M 3116 1747 
Q 3116 2381 2855 2742 
Q 2594 3103 2138 3103 
Q 1681 3103 1420 2742 
Q 1159 2381 1159 1747 
Q 1159 1113 1420 752 
Q 1681 391 2138 391 
Q 2594 391 2855 752 
Q 3116 1113 3116 1747 
z
" transform="scale(0.015625)"/>
       <path id="DejaVuSans-68" d="M 3513 2113 
L 3513 0 
L 2938 0 
L 2938 2094 
Q 2938 2591 2744 2837 
Q 2550 3084 2163 3084 
Q 1697 3084 1428 2787 
Q 1159 2491 1159 1978 
L 1159 0 
L 581 0 
L 581 4863 
L 1159 4863 
L 1159 2956 
Q 1366 3272 1645 3428 
Q 1925 3584 2291 3584 
Q 2894 3584 3203 3211 
Q 3513 2838 3513 2113 
z
" transform="scale(0.015625)"/>
      </defs>
      <use xlink:href="#DejaVuSans-41"/>
      <use xlink:href="#DejaVuSans-6c" x="68.408203"/>
      <use xlink:href="#DejaVuSans-70" x="96.191406"/>
      <use xlink:href="#DejaVuSans-68" x="159.667969"/>
      <use xlink:href="#DejaVuSans-61" x="223.046875"/>
      <use xlink:href="#DejaVuSans-20" x="284.326172"/>
      <use xlink:href="#DejaVuSans-28" x="316.113281"/>
      <use xlink:href="#DejaVuSans-b0" x="355.126953"/>
      <use xlink:href="#DejaVuSans-29" x="405.126953"/>
     </g>
    </g>
   </g>
   <g id="PathCollection_1">
    <defs>
     <path id="m6c7d68c153" d="M 0 3 
C 0.795609 3 1.55874 2.683901 2.12132 2.12132 
C 2.683901 1.55874 3 0.795609 3 0 
C 3 -0.795609 2.683901 -1.55874 2.12132 -2.12132 
C 1.55874 -2.683901 0.795609 -3 0 -3 
C -0.795609 -3 -1.55874 -2.683901 -2.12132 -2.12132 
C -2.683901 -1.55874 -3 -0.795609 -3 0 
C -3 0.795609 -2.683901 1.55874 -2.12132 2.12132 
C -1.55874 2.683901 -0.795609 3 0 3 
z
" style="stroke: #ff0000"/>
    </defs>
    <g clip-path="url(#p870cf6150c)">
     <use xlink:href="#m6c7d68c153" x="856.436364" y="126.823982" style="fill: #ff0000; stroke: #ff0000"/>
     <use xlink:href="#m6c7d68c153" x="770.763636" y="103.952075" style="fill: #ff0000; stroke: #ff0000"/>
     <use xlink:href="#m6c7d68c153" x="730.181818" y="127.14954" style="fill: #ff0000; stroke: #ff0000"/>
     <use xlink:href="#m6c7d68c153" x="677.876364" y="185.317343" style="fill: #ff0000; stroke: #ff0000"/>
     <use xlink:href="#m6c7d68c153" x="630.891636" y="257.420341" style="fill: #ff0000; stroke: #ff0000"/>
     <use xlink:href="#m6c7d68c153" x="589.588364" y="328.662558" style="fill: #ff0000; stroke: #ff0000"/>
     <use xlink:href="#m6c7d68c153" x="536.290909" y="419.34246" style="fill: #ff0000; stroke: #ff0000"/>
     <use xlink:href="#m6c7d68c153" x="486.690909" y="490.190758" style="fill: #ff0000; stroke: #ff0000"/>
     <use xlink:href="#m6c7d68c153" x="441.6" y="534.286911" style="fill: #ff0000; stroke: #ff0000"/>
     <use xlink:href="#m6c7d68c153" x="342.4" y="540.489201" style="fill: #ff0000; stroke: #ff0000"/>
    </g>
   </g>
   <g id="line2d_15">
    <path d="M 184.581818 327.24 
L 207.330385 367.042521 
L 219.517117 387.933929 
L 230.078952 405.607589 
L 239.015889 420.15591 
L 247.140377 432.99585 
L 255.264865 445.415662 
L 262.576904 456.193528 
L 269.888943 466.556552 
L 276.388534 475.392945 
L 282.888124 483.852865 
L 289.387715 491.914885 
L 295.074857 498.626682 
L 300.761998 505.005199 
L 306.44914 511.038095 
L 312.136282 516.713704 
L 317.010975 521.285811 
L 321.885667 525.580872 
L 326.76036 529.592803 
L 331.635053 533.315926 
L 336.509746 536.744981 
L 341.384439 539.875127 
L 346.259132 542.701954 
L 350.321376 544.823059 
L 354.38362 546.72869 
L 358.445864 548.416993 
L 362.508108 549.886333 
L 366.570352 551.135288 
L 370.632596 552.16266 
L 374.69484 552.967466 
L 378.757084 553.548947 
L 382.819328 553.906564 
L 386.881572 554.04 
L 390.943817 553.949159 
L 395.006061 553.634168 
L 399.068305 553.095374 
L 403.130549 552.333348 
L 407.192793 551.348877 
L 411.255037 550.142971 
L 415.317281 548.716857 
L 419.379525 547.071978 
L 423.441769 545.209994 
L 427.504013 543.132778 
L 431.566257 540.842413 
L 436.44095 537.815865 
L 441.315643 534.490055 
L 446.190336 530.869763 
L 451.065029 526.960183 
L 455.939722 522.766921 
L 460.814414 518.295978 
L 465.689107 513.553751 
L 471.376249 507.68734 
L 477.063391 501.47232 
L 482.750532 494.920756 
L 488.437674 488.045361 
L 494.937265 479.808364 
L 501.436855 471.186674 
L 507.936446 462.202094 
L 515.248485 451.688976 
L 522.560524 440.778938 
L 530.685012 428.233577 
L 538.8095 415.290695 
L 547.746437 400.655287 
L 558.308272 382.913806 
L 570.495004 361.990603 
L 588.368878 330.799833 
L 613.554791 286.872104 
L 625.741523 266.062323 
L 636.303358 248.458598 
L 645.240295 233.967681 
L 653.364783 221.17777 
L 661.489271 208.805357 
L 668.80131 198.067497 
L 676.11335 187.741653 
L 682.61294 178.935735 
L 689.112531 170.503725 
L 695.612121 162.466952 
L 701.299263 155.775011 
L 706.986405 149.414242 
L 712.673546 143.396991 
L 718.360688 137.734948 
L 723.235381 133.172848 
L 728.110074 128.886339 
L 732.984767 124.881556 
L 737.859459 121.164237 
L 742.734152 117.739714 
L 747.608845 114.612907 
L 752.483538 111.788314 
L 756.545782 109.668294 
L 760.608026 107.763107 
L 764.67027 106.074668 
L 768.732514 104.604678 
L 772.794758 103.354626 
L 776.857002 102.32578 
L 780.919247 101.519194 
L 784.981491 100.935702 
L 789.043735 100.575915 
L 793.105979 100.440227 
L 797.168223 100.528808 
L 801.230467 100.841607 
L 805.292711 101.378351 
L 809.354955 102.138546 
L 813.417199 103.121476 
L 817.479443 104.326204 
L 821.541687 105.751573 
L 825.603931 107.396208 
L 829.666175 109.258515 
L 833.728419 111.336684 
L 837.790663 113.62869 
L 842.665356 116.658198 
L 847.540049 119.988133 
L 852.414742 123.613798 
L 857.289435 127.53007 
L 862.164128 131.73141 
L 867.038821 136.211869 
L 871.913514 140.965096 
L 877.600655 146.846257 
L 883.287797 153.078123 
L 888.974939 159.64864 
L 894.66208 166.545088 
L 901.161671 174.808674 
L 907.661261 183.45957 
L 914.160852 192.47586 
L 921.472891 203.027447 
L 928.78493 213.978655 
L 936.909419 226.572529 
L 945.033907 239.56634 
L 953.970844 254.259863 
L 964.532678 272.071702 
L 976.71941 293.07641 
L 994.593284 324.382213 
L 996.218182 327.24 
L 996.218182 327.24 
" clip-path="url(#p870cf6150c)" style="fill: none; stroke: #0000ff; stroke-width: 1.5; stroke-linecap: round"/>
   </g>
   <g id="patch_3">
    <path d="M 144 576.72 
L 144 77.76 
" style="fill: none; stroke: #cccccc; stroke-width: 0.8; stroke-linejoin: miter; stroke-linecap: square"/>
   </g>
   <g id="patch_4">
    <path d="M 1036.8 576.72 
L 1036.8 77.76 
" style="fill: none; stroke: #cccccc; stroke-width: 0.8; stroke-linejoin: miter; stroke-linecap: square"/>
   </g>
   <g id="patch_5">
    <path d="M 144 576.72 
L 1036.8 576.72 
" style="fill: none; stroke: #cccccc; stroke-width: 0.8; stroke-linejoin: miter; stroke-linecap: square"/>
   </g>
   <g id="patch_6">
    <path d="M 144 77.76 
L 1036.8 77.76 
" style="fill: none; stroke: #cccccc; stroke-width: 0.8; stroke-linejoin: miter; stroke-linecap: square"/>
   </g>
   <g id="text_17">
    <!-- Ángulo Alpha vs. Latitud -->
    <g style="fill: #262626" transform="translate(517.176562 71.76) scale(0.12 -0.12)">
     <defs>
      <path id="DejaVuSans-c1" d="M 2188 4044 
L 1331 1722 
L 3047 1722 
L 2188 4044 
z
M 1831 4666 
L 2547 4666 
L 4325 0 
L 3669 0 
L 3244 1197 
L 1141 1197 
L 716 0 
L 50 0 
L 1831 4666 
z
M 2356 5921 
L 2934 5921 
L 2222 5096 
L 1743 5096 
L 2356 5921 
z
" transform="scale(0.015625)"/>
      <path id="DejaVuSans-6e" d="M 3513 2113 
L 3513 0 
L 2938 0 
L 2938 2094 
Q 2938 2591 2744 2837 
Q 2550 3084 2163 3084 
Q 1697 3084 1428 2787 
Q 1159 2491 1159 1978 
L 1159 0 
L 581 0 
L 581 3500 
L 1159 3500 
L 1159 2956 
Q 1366 3272 1645 3428 
Q 1925 3584 2291 3584 
Q 2894 3584 3203 3211 
Q 3513 2838 3513 2113 
z
" transform="scale(0.015625)"/>
      <path id="DejaVuSans-67" d="M 2906 1791 
Q 2906 2416 2648 2759 
Q 2391 3103 1925 3103 
Q 1463 3103 1205 2759 
Q 947 2416 947 1791 
Q 947 1169 1205 825 
Q 1463 481 1925 481 
Q 2391 481 2648 825 
Q 2906 1169 2906 1791 
z
M 3481 434 
Q 3481 -459 3084 -895 
Q 2688 -1331 1869 -1331 
Q 1566 -1331 1297 -1286 
Q 1028 -1241 775 -1147 
L 775 -588 
Q 1028 -725 1275 -790 
Q 1522 -856 1778 -856 
Q 2344 -856 2625 -561 
Q 2906 -266 2906 331 
L 2906 616 
Q 2728 306 2450 153 
Q 2172 0 1784 0 
Q 1141 0 747 490 
Q 353 981 353 1791 
Q 353 2603 747 3093 
Q 1141 3584 1784 3584 
Q 2172 3584 2450 3431 
Q 2728 3278 2906 2969 
L 2906 3500 
L 3481 3500 
L 3481 434 
z
" transform="scale(0.015625)"/>
      <path id="DejaVuSans-6f" d="M 1959 3097 
Q 1497 3097 1228 2736 
Q 959 2375 959 1747 
Q 959 1119 1226 758 
Q 1494 397 1959 397 
Q 2419 397 2687 759 
Q 2956 1122 2956 1747 
Q 2956 2369 2687 2733 
Q 2419 3097 1959 3097 
z
M 1959 3584 
Q 2709 3584 3137 3096 
Q 3566 2609 3566 1747 
Q 3566 888 3137 398 
Q 2709 -91 1959 -91 
Q 1206 -91 779 398 
Q 353 888 353 1747 
Q 353 2609 779 3096 
Q 1206 3584 1959 3584 
z
" transform="scale(0.015625)"/>
      <path id="DejaVuSans-76" d="M 191 3500 
L 800 3500 
L 1894 563 
L 2988 3500 
L 3597 3500 
L 2284 0 
L 1503 0 
L 191 3500 
z
" transform="scale(0.015625)"/>
      <path id="DejaVuSans-73" d="M 2834 3397 
L 2834 2853 
Q 2591 2978 2328 3040 
Q 2066 3103 1784 3103 
Q 1356 3103 1142 2972 
Q 928 2841 928 2578 
Q 928 2378 1081 2264 
Q 1234 2150 1697 2047 
L 1894 2003 
Q 2506 1872 2764 1633 
Q 3022 1394 3022 966 
Q 3022 478 2636 193 
Q 2250 -91 1575 -91 
Q 1294 -91 989 -36 
Q 684 19 347 128 
L 347 722 
Q 666 556 975 473 
Q 1284 391 1588 391 
Q 1994 391 2212 530 
Q 2431 669 2431 922 
Q 2431 1156 2273 1281 
Q 2116 1406 1581 1522 
L 1381 1569 
Q 847 1681 609 1914 
Q 372 2147 372 2553 
Q 372 3047 722 3315 
Q 1072 3584 1716 3584 
Q 2034 3584 2315 3537 
Q 2597 3491 2834 3397 
z
" transform="scale(0.015625)"/>
     </defs>
     <use xlink:href="#DejaVuSans-c1"/>
     <use xlink:href="#DejaVuSans-6e" x="68.408203"/>
     <use xlink:href="#DejaVuSans-67" x="131.787109"/>
     <use xlink:href="#DejaVuSans-75" x="195.263672"/>
     <use xlink:href="#DejaVuSans-6c" x="258.642578"/>
     <use xlink:href="#DejaVuSans-6f" x="286.425781"/>
     <use xlink:href="#DejaVuSans-20" x="347.607422"/>
     <use xlink:href="#DejaVuSans-41" x="379.394531"/>
     <use xlink:href="#DejaVuSans-6c" x="447.802734"/>
     <use xlink:href="#DejaVuSans-70" x="475.585938"/>
     <use xlink:href="#DejaVuSans-68" x="539.0625"/>
     <use xlink:href="#DejaVuSans-61" x="602.441406"/>
     <use xlink:href="#DejaVuSans-20" x="663.720703"/>
     <use xlink:href="#DejaVuSans-76" x="695.507812"/>
     <use xlink:href="#DejaVuSans-73" x="754.6875"/>
     <use xlink:href="#DejaVuSans-2e" x="806.787109"/>
     <use xlink:href="#DejaVuSans-20" x="838.574219"/>
     <use xlink:href="#DejaVuSans-4c" x="870.361328"/>
     <use xlink:href="#DejaVuSans-61" x="926.074219"/>
     <use xlink:href="#DejaVuSans-74" x="987.353516"/>
     <use xlink:href="#DejaVuSans-69" x="1026.5625"/>
     <use xlink:href="#DejaVuSans-74" x="1054.345703"/>
     <use xlink:href="#DejaVuSans-75" x="1093.554688"/>
     <use xlink:href="#DejaVuSans-64" x="1156.933594"/>
    </g>
   </g>
   <g id="text_18">
    <g id="patch_7">
     <path d="M 827.461364 123.964648 
L 885.411364 123.964648 
Q 890.411364 123.964648 890.411364 118.964648 
L 890.411364 109.286523 
Q 890.411364 104.286523 885.411364 104.286523 
L 827.461364 104.286523 
Q 822.461364 104.286523 822.461364 109.286523 
L 822.461364 118.964648 
Q 822.461364 123.964648 827.461364 123.964648 
z
" clip-path="url(#p870cf6150c)" style="fill: #ffffff; opacity: 0.5; stroke: #000000; stroke-width: 0.5; stroke-linecap: round"/>
    </g>
    <g clip-path="url(#p870cf6150c)">
     <!-- Estocolmo -->
     <g transform="translate(827.461364 116.884961) scale(0.1 -0.1)">
      <defs>
       <path id="DejaVuSans-Bold-45" d="M 588 4666 
L 3834 4666 
L 3834 3756 
L 1791 3756 
L 1791 2888 
L 3713 2888 
L 3713 1978 
L 1791 1978 
L 1791 909 
L 3903 909 
L 3903 0 
L 588 0 
L 588 4666 
z
" transform="scale(0.015625)"/>
       <path id="DejaVuSans-Bold-73" d="M 3272 3391 
L 3272 2541 
Q 2913 2691 2578 2766 
Q 2244 2841 1947 2841 
Q 1628 2841 1473 2761 
Q 1319 2681 1319 2516 
Q 1319 2381 1436 2309 
Q 1553 2238 1856 2203 
L 2053 2175 
Q 2913 2066 3209 1816 
Q 3506 1566 3506 1031 
Q 3506 472 3093 190 
Q 2681 -91 1863 -91 
Q 1516 -91 1145 -36 
Q 775 19 384 128 
L 384 978 
Q 719 816 1070 734 
Q 1422 653 1784 653 
Q 2113 653 2278 743 
Q 2444 834 2444 1013 
Q 2444 1163 2330 1236 
Q 2216 1309 1875 1350 
L 1678 1375 
Q 931 1469 631 1722 
Q 331 1975 331 2491 
Q 331 3047 712 3315 
Q 1094 3584 1881 3584 
Q 2191 3584 2531 3537 
Q 2872 3491 3272 3391 
z
" transform="scale(0.015625)"/>
       <path id="DejaVuSans-Bold-74" d="M 1759 4494 
L 1759 3500 
L 2913 3500 
L 2913 2700 
L 1759 2700 
L 1759 1216 
Q 1759 972 1856 886 
Q 1953 800 2241 800 
L 2816 800 
L 2816 0 
L 1856 0 
Q 1194 0 917 276 
Q 641 553 641 1216 
L 641 2700 
L 84 2700 
L 84 3500 
L 641 3500 
L 641 4494 
L 1759 4494 
z
" transform="scale(0.015625)"/>
       <path id="DejaVuSans-Bold-6f" d="M 2203 2784 
Q 1831 2784 1636 2517 
Q 1441 2250 1441 1747 
Q 1441 1244 1636 976 
Q 1831 709 2203 709 
Q 2569 709 2762 976 
Q 2956 1244 2956 1747 
Q 2956 2250 2762 2517 
Q 2569 2784 2203 2784 
z
M 2203 3584 
Q 3106 3584 3614 3096 
Q 4122 2609 4122 1747 
Q 4122 884 3614 396 
Q 3106 -91 2203 -91 
Q 1297 -91 786 396 
Q 275 884 275 1747 
Q 275 2609 786 3096 
Q 1297 3584 2203 3584 
z
" transform="scale(0.015625)"/>
       <path id="DejaVuSans-Bold-63" d="M 3366 3391 
L 3366 2478 
Q 3138 2634 2908 2709 
Q 2678 2784 2431 2784 
Q 1963 2784 1702 2511 
Q 1441 2238 1441 1747 
Q 1441 1256 1702 982 
Q 1963 709 2431 709 
Q 2694 709 2930 787 
Q 3166 866 3366 1019 
L 3366 103 
Q 3103 6 2833 -42 
Q 2563 -91 2291 -91 
Q 1344 -91 809 395 
Q 275 881 275 1747 
Q 275 2613 809 3098 
Q 1344 3584 2291 3584 
Q 2566 3584 2833 3536 
Q 3100 3488 3366 3391 
z
" transform="scale(0.015625)"/>
       <path id="DejaVuSans-Bold-6c" d="M 538 4863 
L 1656 4863 
L 1656 0 
L 538 0 
L 538 4863 
z
" transform="scale(0.015625)"/>
       <path id="DejaVuSans-Bold-6d" d="M 3781 2919 
Q 3994 3244 4286 3414 
Q 4578 3584 4928 3584 
Q 5531 3584 5847 3212 
Q 6163 2841 6163 2131 
L 6163 0 
L 5038 0 
L 5038 1825 
Q 5041 1866 5042 1909 
Q 5044 1953 5044 2034 
Q 5044 2406 4934 2573 
Q 4825 2741 4581 2741 
Q 4263 2741 4089 2478 
Q 3916 2216 3909 1719 
L 3909 0 
L 2784 0 
L 2784 1825 
Q 2784 2406 2684 2573 
Q 2584 2741 2328 2741 
Q 2006 2741 1831 2477 
Q 1656 2213 1656 1722 
L 1656 0 
L 531 0 
L 531 3500 
L 1656 3500 
L 1656 2988 
Q 1863 3284 2130 3434 
Q 2397 3584 2719 3584 
Q 3081 3584 3359 3409 
Q 3638 3234 3781 2919 
z
" transform="scale(0.015625)"/>
      </defs>
      <use xlink:href="#DejaVuSans-Bold-45"/>
      <use xlink:href="#DejaVuSans-Bold-73" x="68.310547"/>
      <use xlink:href="#DejaVuSans-Bold-74" x="127.832031"/>
      <use xlink:href="#DejaVuSans-Bold-6f" x="175.634766"/>
      <use xlink:href="#DejaVuSans-Bold-63" x="244.335938"/>
      <use xlink:href="#DejaVuSans-Bold-6f" x="303.613281"/>
      <use xlink:href="#DejaVuSans-Bold-6c" x="372.314453"/>
      <use xlink:href="#DejaVuSans-Bold-6d" x="406.591797"/>
      <use xlink:href="#DejaVuSans-Bold-6f" x="510.791016"/>
     </g>
    </g>
   </g>
   <g id="text_19">
    <g id="patch_8">
     <path d="M 738.864418 101.092742 
L 802.662855 101.092742 
Q 807.662855 101.092742 807.662855 96.092742 
L 807.662855 86.414617 
Q 807.662855 81.414617 802.662855 81.414617 
L 738.864418 81.414617 
Q 733.864418 81.414617 733.864418 86.414617 
L 733.864418 96.092742 
Q 733.864418 101.092742 738.864418 101.092742 
z
" clip-path="url(#p870cf6150c)" style="fill: #ffffff; opacity: 0.5; stroke: #000000; stroke-width: 0.5; stroke-linecap: round"/>
    </g>
    <g clip-path="url(#p870cf6150c)">
     <!-- Nueva York -->
     <g transform="translate(738.864418 94.013054) scale(0.1 -0.1)">
      <defs>
       <path id="DejaVuSans-Bold-4e" d="M 588 4666 
L 1931 4666 
L 3628 1466 
L 3628 4666 
L 4769 4666 
L 4769 0 
L 3425 0 
L 1728 3200 
L 1728 0 
L 588 0 
L 588 4666 
z
" transform="scale(0.015625)"/>
       <path id="DejaVuSans-Bold-75" d="M 500 1363 
L 500 3500 
L 1625 3500 
L 1625 3150 
Q 1625 2866 1622 2436 
Q 1619 2006 1619 1863 
Q 1619 1441 1641 1255 
Q 1663 1069 1716 984 
Q 1784 875 1895 815 
Q 2006 756 2150 756 
Q 2500 756 2700 1025 
Q 2900 1294 2900 1772 
L 2900 3500 
L 4019 3500 
L 4019 0 
L 2900 0 
L 2900 506 
Q 2647 200 2364 54 
Q 2081 -91 1741 -91 
Q 1134 -91 817 281 
Q 500 653 500 1363 
z
" transform="scale(0.015625)"/>
       <path id="DejaVuSans-Bold-65" d="M 4031 1759 
L 4031 1441 
L 1416 1441 
Q 1456 1047 1700 850 
Q 1944 653 2381 653 
Q 2734 653 3104 758 
Q 3475 863 3866 1075 
L 3866 213 
Q 3469 63 3072 -14 
Q 2675 -91 2278 -91 
Q 1328 -91 801 392 
Q 275 875 275 1747 
Q 275 2603 792 3093 
Q 1309 3584 2216 3584 
Q 3041 3584 3536 3087 
Q 4031 2591 4031 1759 
z
M 2881 2131 
Q 2881 2450 2695 2645 
Q 2509 2841 2209 2841 
Q 1884 2841 1681 2658 
Q 1478 2475 1428 2131 
L 2881 2131 
z
" transform="scale(0.015625)"/>
       <path id="DejaVuSans-Bold-76" d="M 97 3500 
L 1216 3500 
L 2088 1081 
L 2956 3500 
L 4078 3500 
L 2700 0 
L 1472 0 
L 97 3500 
z
" transform="scale(0.015625)"/>
       <path id="DejaVuSans-Bold-61" d="M 2106 1575 
Q 1756 1575 1579 1456 
Q 1403 1338 1403 1106 
Q 1403 894 1545 773 
Q 1688 653 1941 653 
Q 2256 653 2472 879 
Q 2688 1106 2688 1447 
L 2688 1575 
L 2106 1575 
z
M 3816 1997 
L 3816 0 
L 2688 0 
L 2688 519 
Q 2463 200 2181 54 
Q 1900 -91 1497 -91 
Q 953 -91 614 226 
Q 275 544 275 1050 
Q 275 1666 698 1953 
Q 1122 2241 2028 2241 
L 2688 2241 
L 2688 2328 
Q 2688 2594 2478 2717 
Q 2269 2841 1825 2841 
Q 1466 2841 1156 2769 
Q 847 2697 581 2553 
L 581 3406 
Q 941 3494 1303 3539 
Q 1666 3584 2028 3584 
Q 2975 3584 3395 3211 
Q 3816 2838 3816 1997 
z
" transform="scale(0.015625)"/>
       <path id="DejaVuSans-Bold-20" transform="scale(0.015625)"/>
       <path id="DejaVuSans-Bold-59" d="M -63 4666 
L 1253 4666 
L 2316 3003 
L 3378 4666 
L 4697 4666 
L 2919 1966 
L 2919 0 
L 1716 0 
L 1716 1966 
L -63 4666 
z
" transform="scale(0.015625)"/>
       <path id="DejaVuSans-Bold-72" d="M 3138 2547 
Q 2991 2616 2845 2648 
Q 2700 2681 2553 2681 
Q 2122 2681 1889 2404 
Q 1656 2128 1656 1613 
L 1656 0 
L 538 0 
L 538 3500 
L 1656 3500 
L 1656 2925 
Q 1872 3269 2151 3426 
Q 2431 3584 2822 3584 
Q 2878 3584 2943 3579 
Q 3009 3575 3134 3559 
L 3138 2547 
z
" transform="scale(0.015625)"/>
       <path id="DejaVuSans-Bold-6b" d="M 538 4863 
L 1656 4863 
L 1656 2216 
L 2944 3500 
L 4244 3500 
L 2534 1894 
L 4378 0 
L 3022 0 
L 1656 1459 
L 1656 0 
L 538 0 
L 538 4863 
z
" transform="scale(0.015625)"/>
      </defs>
      <use xlink:href="#DejaVuSans-Bold-4e"/>
      <use xlink:href="#DejaVuSans-Bold-75" x="83.691406"/>
      <use xlink:href="#DejaVuSans-Bold-65" x="154.882812"/>
      <use xlink:href="#DejaVuSans-Bold-76" x="222.705078"/>
      <use xlink:href="#DejaVuSans-Bold-61" x="287.890625"/>
      <use xlink:href="#DejaVuSans-Bold-20" x="355.371094"/>
      <use xlink:href="#DejaVuSans-Bold-59" x="390.185547"/>
      <use xlink:href="#DejaVuSans-Bold-6f" x="453.472656"/>
      <use xlink:href="#DejaVuSans-Bold-72" x="522.173828"/>
      <use xlink:href="#DejaVuSans-Bold-6b" x="571.490234"/>
     </g>
    </g>
   </g>
   <g id="text_20">
    <g id="patch_9">
     <path d="M 708.652912 124.290207 
L 751.710724 124.290207 
Q 756.710724 124.290207 756.710724 119.290207 
L 756.710724 109.612082 
Q 756.710724 104.612082 751.710724 104.612082 
L 708.652912 104.612082 
Q 703.652912 104.612082 703.652912 109.612082 
L 703.652912 119.290207 
Q 703.652912 124.290207 708.652912 124.290207 
z
" clip-path="url(#p870cf6150c)" style="fill: #ffffff; opacity: 0.5; stroke: #000000; stroke-width: 0.5; stroke-linecap: round"/>
    </g>
    <g clip-path="url(#p870cf6150c)">
     <!-- El Cairo -->
     <g transform="translate(708.652912 117.210519) scale(0.1 -0.1)">
      <defs>
       <path id="DejaVuSans-Bold-43" d="M 4288 256 
Q 3956 84 3597 -3 
Q 3238 -91 2847 -91 
Q 1681 -91 1000 561 
Q 319 1213 319 2328 
Q 319 3447 1000 4098 
Q 1681 4750 2847 4750 
Q 3238 4750 3597 4662 
Q 3956 4575 4288 4403 
L 4288 3438 
Q 3953 3666 3628 3772 
Q 3303 3878 2944 3878 
Q 2300 3878 1931 3465 
Q 1563 3053 1563 2328 
Q 1563 1606 1931 1193 
Q 2300 781 2944 781 
Q 3303 781 3628 887 
Q 3953 994 4288 1222 
L 4288 256 
z
" transform="scale(0.015625)"/>
       <path id="DejaVuSans-Bold-69" d="M 538 3500 
L 1656 3500 
L 1656 0 
L 538 0 
L 538 3500 
z
M 538 4863 
L 1656 4863 
L 1656 3950 
L 538 3950 
L 538 4863 
z
" transform="scale(0.015625)"/>
      </defs>
      <use xlink:href="#DejaVuSans-Bold-45"/>
      <use xlink:href="#DejaVuSans-Bold-6c" x="68.310547"/>
      <use xlink:href="#DejaVuSans-Bold-20" x="102.587891"/>
      <use xlink:href="#DejaVuSans-Bold-43" x="137.402344"/>
      <use xlink:href="#DejaVuSans-Bold-61" x="210.791016"/>
      <use xlink:href="#DejaVuSans-Bold-69" x="278.271484"/>
      <use xlink:href="#DejaVuSans-Bold-72" x="312.548828"/>
      <use xlink:href="#DejaVuSans-Bold-6f" x="361.865234"/>
     </g>
    </g>
   </g>
   <g id="text_21">
    <g id="patch_10">
     <path d="M 628.244332 182.45801 
L 727.508395 182.45801 
Q 732.508395 182.45801 732.508395 177.45801 
L 732.508395 167.779885 
Q 732.508395 162.779885 727.508395 162.779885 
L 628.244332 162.779885 
Q 623.244332 162.779885 623.244332 167.779885 
L 623.244332 177.45801 
Q 623.244332 182.45801 628.244332 182.45801 
z
" clip-path="url(#p870cf6150c)" style="fill: #ffffff; opacity: 0.5; stroke: #000000; stroke-width: 0.5; stroke-linecap: round"/>
    </g>
    <g clip-path="url(#p870cf6150c)">
     <!-- Ciudad de México -->
     <g transform="translate(628.244332 175.378322) scale(0.1 -0.1)">
      <defs>
       <path id="DejaVuSans-Bold-64" d="M 2919 2988 
L 2919 4863 
L 4044 4863 
L 4044 0 
L 2919 0 
L 2919 506 
Q 2688 197 2409 53 
Q 2131 -91 1766 -91 
Q 1119 -91 703 423 
Q 288 938 288 1747 
Q 288 2556 703 3070 
Q 1119 3584 1766 3584 
Q 2128 3584 2408 3439 
Q 2688 3294 2919 2988 
z
M 2181 722 
Q 2541 722 2730 984 
Q 2919 1247 2919 1747 
Q 2919 2247 2730 2509 
Q 2541 2772 2181 2772 
Q 1825 2772 1636 2509 
Q 1447 2247 1447 1747 
Q 1447 1247 1636 984 
Q 1825 722 2181 722 
z
" transform="scale(0.015625)"/>
       <path id="DejaVuSans-Bold-4d" d="M 588 4666 
L 2119 4666 
L 3181 2169 
L 4250 4666 
L 5778 4666 
L 5778 0 
L 4641 0 
L 4641 3413 
L 3566 897 
L 2803 897 
L 1728 3413 
L 1728 0 
L 588 0 
L 588 4666 
z
" transform="scale(0.015625)"/>
       <path id="DejaVuSans-Bold-e9" d="M 4031 1759 
L 4031 1441 
L 1416 1441 
Q 1456 1047 1700 850 
Q 1944 653 2381 653 
Q 2734 653 3104 758 
Q 3475 863 3866 1075 
L 3866 213 
Q 3469 63 3072 -14 
Q 2675 -91 2278 -91 
Q 1328 -91 801 392 
Q 275 875 275 1747 
Q 275 2603 792 3093 
Q 1309 3584 2216 3584 
Q 3041 3584 3536 3087 
Q 4031 2591 4031 1759 
z
M 2881 2131 
Q 2881 2450 2695 2645 
Q 2509 2841 2209 2841 
Q 1884 2841 1681 2658 
Q 1478 2475 1428 2131 
L 2881 2131 
z
M 2702 5119 
L 3586 5119 
L 2433 3944 
L 1821 3944 
L 2702 5119 
z
" transform="scale(0.015625)"/>
       <path id="DejaVuSans-Bold-78" d="M 1422 1791 
L 159 3500 
L 1344 3500 
L 2059 2463 
L 2784 3500 
L 3969 3500 
L 2706 1797 
L 4031 0 
L 2847 0 
L 2059 1106 
L 1281 0 
L 97 0 
L 1422 1791 
z
" transform="scale(0.015625)"/>
      </defs>
      <use xlink:href="#DejaVuSans-Bold-43"/>
      <use xlink:href="#DejaVuSans-Bold-69" x="73.388672"/>
      <use xlink:href="#DejaVuSans-Bold-75" x="107.666016"/>
      <use xlink:href="#DejaVuSans-Bold-64" x="178.857422"/>
      <use xlink:href="#DejaVuSans-Bold-61" x="250.439453"/>
      <use xlink:href="#DejaVuSans-Bold-64" x="317.919922"/>
      <use xlink:href="#DejaVuSans-Bold-20" x="389.501953"/>
      <use xlink:href="#DejaVuSans-Bold-64" x="424.316406"/>
      <use xlink:href="#DejaVuSans-Bold-65" x="495.898438"/>
      <use xlink:href="#DejaVuSans-Bold-20" x="563.720703"/>
      <use xlink:href="#DejaVuSans-Bold-4d" x="598.535156"/>
      <use xlink:href="#DejaVuSans-Bold-e9" x="698.046875"/>
      <use xlink:href="#DejaVuSans-Bold-78" x="765.869141"/>
      <use xlink:href="#DejaVuSans-Bold-69" x="830.371094"/>
      <use xlink:href="#DejaVuSans-Bold-63" x="864.648438"/>
      <use xlink:href="#DejaVuSans-Bold-6f" x="923.925781"/>
     </g>
    </g>
   </g>
   <g id="text_22">
    <g id="patch_11">
     <path d="M 578.539293 254.561008 
L 683.24398 254.561008 
Q 688.24398 254.561008 688.24398 249.561008 
L 688.24398 239.882883 
Q 688.24398 234.882883 683.24398 234.882883 
L 578.539293 234.882883 
Q 573.539293 234.882883 573.539293 239.882883 
L 573.539293 249.561008 
Q 573.539293 254.561008 578.539293 254.561008 
z
" clip-path="url(#p870cf6150c)" style="fill: #ffffff; opacity: 0.5; stroke: #000000; stroke-width: 0.5; stroke-linecap: round"/>
    </g>
    <g clip-path="url(#p870cf6150c)">
     <!-- Ciudad de Panamá -->
     <g transform="translate(578.539293 247.48132) scale(0.1 -0.1)">
      <defs>
       <path id="DejaVuSans-Bold-50" d="M 588 4666 
L 2584 4666 
Q 3475 4666 3951 4270 
Q 4428 3875 4428 3144 
Q 4428 2409 3951 2014 
Q 3475 1619 2584 1619 
L 1791 1619 
L 1791 0 
L 588 0 
L 588 4666 
z
M 1791 3794 
L 1791 2491 
L 2456 2491 
Q 2806 2491 2997 2661 
Q 3188 2831 3188 3144 
Q 3188 3456 2997 3625 
Q 2806 3794 2456 3794 
L 1791 3794 
z
" transform="scale(0.015625)"/>
       <path id="DejaVuSans-Bold-6e" d="M 4056 2131 
L 4056 0 
L 2931 0 
L 2931 347 
L 2931 1631 
Q 2931 2084 2911 2256 
Q 2891 2428 2841 2509 
Q 2775 2619 2662 2680 
Q 2550 2741 2406 2741 
Q 2056 2741 1856 2470 
Q 1656 2200 1656 1722 
L 1656 0 
L 538 0 
L 538 3500 
L 1656 3500 
L 1656 2988 
Q 1909 3294 2193 3439 
Q 2478 3584 2822 3584 
Q 3428 3584 3742 3212 
Q 4056 2841 4056 2131 
z
" transform="scale(0.015625)"/>
       <path id="DejaVuSans-Bold-e1" d="M 2106 1575 
Q 1756 1575 1579 1456 
Q 1403 1338 1403 1106 
Q 1403 894 1545 773 
Q 1688 653 1941 653 
Q 2256 653 2472 879 
Q 2688 1106 2688 1447 
L 2688 1575 
L 2106 1575 
z
M 3816 1997 
L 3816 0 
L 2688 0 
L 2688 519 
Q 2463 200 2181 54 
Q 1900 -91 1497 -91 
Q 953 -91 614 226 
Q 275 544 275 1050 
Q 275 1666 698 1953 
Q 1122 2241 2028 2241 
L 2688 2241 
L 2688 2328 
Q 2688 2594 2478 2717 
Q 2269 2841 1825 2841 
Q 1466 2841 1156 2769 
Q 847 2697 581 2553 
L 581 3406 
Q 941 3494 1303 3539 
Q 1666 3584 2028 3584 
Q 2975 3584 3395 3211 
Q 3816 2838 3816 1997 
z
M 2606 5119 
L 3490 5119 
L 2337 3944 
L 1725 3944 
L 2606 5119 
z
" transform="scale(0.015625)"/>
      </defs>
      <use xlink:href="#DejaVuSans-Bold-43"/>
      <use xlink:href="#DejaVuSans-Bold-69" x="73.388672"/>
      <use xlink:href="#DejaVuSans-Bold-75" x="107.666016"/>
      <use xlink:href="#DejaVuSans-Bold-64" x="178.857422"/>
      <use xlink:href="#DejaVuSans-Bold-61" x="250.439453"/>
      <use xlink:href="#DejaVuSans-Bold-64" x="317.919922"/>
      <use xlink:href="#DejaVuSans-Bold-20" x="389.501953"/>
      <use xlink:href="#DejaVuSans-Bold-64" x="424.316406"/>
      <use xlink:href="#DejaVuSans-Bold-65" x="495.898438"/>
      <use xlink:href="#DejaVuSans-Bold-20" x="563.720703"/>
      <use xlink:href="#DejaVuSans-Bold-50" x="598.535156"/>
      <use xlink:href="#DejaVuSans-Bold-61" x="669.201172"/>
      <use xlink:href="#DejaVuSans-Bold-6e" x="736.681641"/>
      <use xlink:href="#DejaVuSans-Bold-61" x="807.873047"/>
      <use xlink:href="#DejaVuSans-Bold-6d" x="875.353516"/>
      <use xlink:href="#DejaVuSans-Bold-e1" x="979.552734"/>
     </g>
    </g>
   </g>
   <g id="text_23">
    <g id="patch_12">
     <path d="M 574.239145 325.803225 
L 604.937582 325.803225 
Q 609.937582 325.803225 609.937582 320.803225 
L 609.937582 311.1251 
Q 609.937582 306.1251 604.937582 306.1251 
L 574.239145 306.1251 
Q 569.239145 306.1251 569.239145 311.1251 
L 569.239145 320.803225 
Q 569.239145 325.803225 574.239145 325.803225 
z
" clip-path="url(#p870cf6150c)" style="fill: #ffffff; opacity: 0.5; stroke: #000000; stroke-width: 0.5; stroke-linecap: round"/>
    </g>
    <g clip-path="url(#p870cf6150c)">
     <!-- Quito -->
     <g transform="translate(574.239145 318.723537) scale(0.1 -0.1)">
      <defs>
       <path id="DejaVuSans-Bold-51" d="M 2847 -84 
L 2753 -84 
Q 1600 -84 959 553 
Q 319 1191 319 2328 
Q 319 3463 958 4106 
Q 1597 4750 2719 4750 
Q 3853 4750 4486 4112 
Q 5119 3475 5119 2328 
Q 5119 1541 4783 972 
Q 4447 403 3816 116 
L 4756 -934 
L 3609 -934 
L 2847 -84 
z
M 2719 3878 
Q 2169 3878 1866 3472 
Q 1563 3066 1563 2328 
Q 1563 1578 1859 1179 
Q 2156 781 2719 781 
Q 3272 781 3575 1187 
Q 3878 1594 3878 2328 
Q 3878 3066 3575 3472 
Q 3272 3878 2719 3878 
z
" transform="scale(0.015625)"/>
      </defs>
      <use xlink:href="#DejaVuSans-Bold-51"/>
      <use xlink:href="#DejaVuSans-Bold-75" x="85.009766"/>
      <use xlink:href="#DejaVuSans-Bold-69" x="156.201172"/>
      <use xlink:href="#DejaVuSans-Bold-74" x="190.478516"/>
      <use xlink:href="#DejaVuSans-Bold-6f" x="238.28125"/>
     </g>
    </g>
   </g>
   <g id="text_24">
    <g id="patch_13">
     <path d="M 508.523722 416.483126 
L 564.058097 416.483126 
Q 569.058097 416.483126 569.058097 411.483126 
L 569.058097 401.805001 
Q 569.058097 396.805001 564.058097 396.805001 
L 508.523722 396.805001 
Q 503.523722 396.805001 503.523722 401.805001 
L 503.523722 411.483126 
Q 503.523722 416.483126 508.523722 416.483126 
z
" clip-path="url(#p870cf6150c)" style="fill: #ffffff; opacity: 0.5; stroke: #000000; stroke-width: 0.5; stroke-linecap: round"/>
    </g>
    <g clip-path="url(#p870cf6150c)">
     <!-- São Paulo -->
     <g transform="translate(508.523722 409.403439) scale(0.1 -0.1)">
      <defs>
       <path id="DejaVuSans-Bold-53" d="M 3834 4519 
L 3834 3531 
Q 3450 3703 3084 3790 
Q 2719 3878 2394 3878 
Q 1963 3878 1756 3759 
Q 1550 3641 1550 3391 
Q 1550 3203 1689 3098 
Q 1828 2994 2194 2919 
L 2706 2816 
Q 3484 2659 3812 2340 
Q 4141 2022 4141 1434 
Q 4141 663 3683 286 
Q 3225 -91 2284 -91 
Q 1841 -91 1394 -6 
Q 947 78 500 244 
L 500 1259 
Q 947 1022 1364 901 
Q 1781 781 2169 781 
Q 2563 781 2772 912 
Q 2981 1044 2981 1288 
Q 2981 1506 2839 1625 
Q 2697 1744 2272 1838 
L 1806 1941 
Q 1106 2091 782 2419 
Q 459 2747 459 3303 
Q 459 4000 909 4375 
Q 1359 4750 2203 4750 
Q 2588 4750 2994 4692 
Q 3400 4634 3834 4519 
z
" transform="scale(0.015625)"/>
       <path id="DejaVuSans-Bold-e3" d="M 2106 1575 
Q 1756 1575 1579 1456 
Q 1403 1338 1403 1106 
Q 1403 894 1545 773 
Q 1688 653 1941 653 
Q 2256 653 2472 879 
Q 2688 1106 2688 1447 
L 2688 1575 
L 2106 1575 
z
M 3816 1997 
L 3816 0 
L 2688 0 
L 2688 519 
Q 2463 200 2181 54 
Q 1900 -91 1497 -91 
Q 953 -91 614 226 
Q 275 544 275 1050 
Q 275 1666 698 1953 
Q 1122 2241 2028 2241 
L 2688 2241 
L 2688 2328 
Q 2688 2594 2478 2717 
Q 2269 2841 1825 2841 
Q 1466 2841 1156 2769 
Q 847 2697 581 2553 
L 581 3406 
Q 941 3494 1303 3539 
Q 1666 3584 2028 3584 
Q 2975 3584 3395 3211 
Q 3816 2838 3816 1997 
z
M 2190 4263 
L 2018 4378 
Q 2006 4384 1987 4397 
Q 1840 4494 1762 4494 
Q 1650 4494 1590 4397 
Q 1531 4300 1531 4116 
L 1531 4091 
L 1097 4091 
Q 1097 4516 1257 4747 
Q 1418 4978 1709 4978 
Q 1822 4978 1936 4936 
Q 2050 4894 2178 4800 
L 2368 4666 
Q 2437 4619 2495 4594 
Q 2553 4569 2600 4569 
Q 2712 4569 2774 4669 
Q 2837 4769 2837 4947 
L 2837 4972 
L 3272 4972 
Q 3272 4547 3111 4315 
Q 2950 4084 2659 4084 
Q 2547 4084 2442 4121 
Q 2337 4159 2190 4263 
z
" transform="scale(0.015625)"/>
      </defs>
      <use xlink:href="#DejaVuSans-Bold-53"/>
      <use xlink:href="#DejaVuSans-Bold-e3" x="72.021484"/>
      <use xlink:href="#DejaVuSans-Bold-6f" x="139.501953"/>
      <use xlink:href="#DejaVuSans-Bold-20" x="208.203125"/>
      <use xlink:href="#DejaVuSans-Bold-50" x="243.017578"/>
      <use xlink:href="#DejaVuSans-Bold-61" x="313.683594"/>
      <use xlink:href="#DejaVuSans-Bold-75" x="381.164062"/>
      <use xlink:href="#DejaVuSans-Bold-6c" x="452.355469"/>
      <use xlink:href="#DejaVuSans-Bold-6f" x="486.632812"/>
     </g>
    </g>
   </g>
   <g id="text_25">
    <g id="patch_14">
     <path d="M 467.587003 487.331424 
L 505.794815 487.331424 
Q 510.794815 487.331424 510.794815 482.331424 
L 510.794815 472.175174 
Q 510.794815 467.175174 505.794815 467.175174 
L 467.587003 467.175174 
Q 462.587003 467.175174 462.587003 472.175174 
L 462.587003 482.331424 
Q 462.587003 487.331424 467.587003 487.331424 
z
" clip-path="url(#p870cf6150c)" style="fill: #ffffff; opacity: 0.5; stroke: #000000; stroke-width: 0.5; stroke-linecap: round"/>
    </g>
    <g clip-path="url(#p870cf6150c)">
     <!-- Sídney -->
     <g transform="translate(467.587003 480.173612) scale(0.1 -0.1)">
      <defs>
       <path id="DejaVuSans-Bold-ed" d="M 538 3500 
L 1656 3500 
L 1656 0 
L 538 0 
L 538 3500 
z
M 1590 5119 
L 2474 5119 
L 1321 3944 
L 709 3944 
L 1590 5119 
z
" transform="scale(0.015625)"/>
       <path id="DejaVuSans-Bold-79" d="M 78 3500 
L 1197 3500 
L 2138 1125 
L 2938 3500 
L 4056 3500 
L 2584 -331 
Q 2363 -916 2067 -1148 
Q 1772 -1381 1288 -1381 
L 641 -1381 
L 641 -647 
L 991 -647 
Q 1275 -647 1404 -556 
Q 1534 -466 1606 -231 
L 1638 -134 
L 78 3500 
z
" transform="scale(0.015625)"/>
      </defs>
      <use xlink:href="#DejaVuSans-Bold-53"/>
      <use xlink:href="#DejaVuSans-Bold-ed" x="72.021484"/>
      <use xlink:href="#DejaVuSans-Bold-64" x="106.298828"/>
      <use xlink:href="#DejaVuSans-Bold-6e" x="177.880859"/>
      <use xlink:href="#DejaVuSans-Bold-65" x="249.072266"/>
      <use xlink:href="#DejaVuSans-Bold-79" x="316.894531"/>
     </g>
    </g>
   </g>
   <g id="text_26">
    <g id="patch_15">
     <path d="M 395.901563 531.427578 
L 487.298438 531.427578 
Q 492.298438 531.427578 492.298438 526.427578 
L 492.298438 516.749453 
Q 492.298438 511.749453 487.298438 511.749453 
L 395.901563 511.749453 
Q 390.901563 511.749453 390.901563 516.749453 
L 390.901563 526.427578 
Q 390.901563 531.427578 395.901563 531.427578 
z
" clip-path="url(#p870cf6150c)" style="fill: #ffffff; opacity: 0.5; stroke: #000000; stroke-width: 0.5; stroke-linecap: round"/>
    </g>
    <g clip-path="url(#p870cf6150c)">
     <!-- Ciudad del Cabo -->
     <g transform="translate(395.901563 524.34789) scale(0.1 -0.1)">
      <defs>
       <path id="DejaVuSans-Bold-62" d="M 2400 722 
Q 2759 722 2948 984 
Q 3138 1247 3138 1747 
Q 3138 2247 2948 2509 
Q 2759 2772 2400 2772 
Q 2041 2772 1848 2508 
Q 1656 2244 1656 1747 
Q 1656 1250 1848 986 
Q 2041 722 2400 722 
z
M 1656 2988 
Q 1888 3294 2169 3439 
Q 2450 3584 2816 3584 
Q 3463 3584 3878 3070 
Q 4294 2556 4294 1747 
Q 4294 938 3878 423 
Q 3463 -91 2816 -91 
Q 2450 -91 2169 54 
Q 1888 200 1656 506 
L 1656 0 
L 538 0 
L 538 4863 
L 1656 4863 
L 1656 2988 
z
" transform="scale(0.015625)"/>
      </defs>
      <use xlink:href="#DejaVuSans-Bold-43"/>
      <use xlink:href="#DejaVuSans-Bold-69" x="73.388672"/>
      <use xlink:href="#DejaVuSans-Bold-75" x="107.666016"/>
      <use xlink:href="#DejaVuSans-Bold-64" x="178.857422"/>
      <use xlink:href="#DejaVuSans-Bold-61" x="250.439453"/>
      <use xlink:href="#DejaVuSans-Bold-64" x="317.919922"/>
      <use xlink:href="#DejaVuSans-Bold-20" x="389.501953"/>
      <use xlink:href="#DejaVuSans-Bold-64" x="424.316406"/>
      <use xlink:href="#DejaVuSans-Bold-65" x="495.898438"/>
      <use xlink:href="#DejaVuSans-Bold-6c" x="563.720703"/>
      <use xlink:href="#DejaVuSans-Bold-20" x="597.998047"/>
      <use xlink:href="#DejaVuSans-Bold-43" x="632.8125"/>
      <use xlink:href="#DejaVuSans-Bold-61" x="706.201172"/>
      <use xlink:href="#DejaVuSans-Bold-62" x="773.681641"/>
      <use xlink:href="#DejaVuSans-Bold-6f" x="845.263672"/>
     </g>
    </g>
   </g>
   <g id="text_27">
    <g id="patch_16">
     <path d="M 297.821875 537.629867 
L 386.978125 537.629867 
Q 391.978125 537.629867 391.978125 532.629867 
L 391.978125 522.951742 
Q 391.978125 517.951742 386.978125 517.951742 
L 297.821875 517.951742 
Q 292.821875 517.951742 292.821875 522.951742 
L 292.821875 532.629867 
Q 292.821875 537.629867 297.821875 537.629867 
z
" clip-path="url(#p870cf6150c)" style="fill: #ffffff; opacity: 0.5; stroke: #000000; stroke-width: 0.5; stroke-linecap: round"/>
    </g>
    <g clip-path="url(#p870cf6150c)">
     <!-- Puerto Williams -->
     <g transform="translate(297.821875 530.55018) scale(0.1 -0.1)">
      <defs>
       <path id="DejaVuSans-Bold-57" d="M 191 4666 
L 1344 4666 
L 2150 1275 
L 2950 4666 
L 4109 4666 
L 4909 1275 
L 5716 4666 
L 6859 4666 
L 5759 0 
L 4372 0 
L 3525 3547 
L 2688 0 
L 1300 0 
L 191 4666 
z
" transform="scale(0.015625)"/>
      </defs>
      <use xlink:href="#DejaVuSans-Bold-50"/>
      <use xlink:href="#DejaVuSans-Bold-75" x="73.291016"/>
      <use xlink:href="#DejaVuSans-Bold-65" x="144.482422"/>
      <use xlink:href="#DejaVuSans-Bold-72" x="212.304688"/>
      <use xlink:href="#DejaVuSans-Bold-74" x="261.621094"/>
      <use xlink:href="#DejaVuSans-Bold-6f" x="309.423828"/>
      <use xlink:href="#DejaVuSans-Bold-20" x="378.125"/>
      <use xlink:href="#DejaVuSans-Bold-57" x="412.939453"/>
      <use xlink:href="#DejaVuSans-Bold-69" x="523.242188"/>
      <use xlink:href="#DejaVuSans-Bold-6c" x="557.519531"/>
      <use xlink:href="#DejaVuSans-Bold-6c" x="591.796875"/>
      <use xlink:href="#DejaVuSans-Bold-69" x="626.074219"/>
      <use xlink:href="#DejaVuSans-Bold-61" x="660.351562"/>
      <use xlink:href="#DejaVuSans-Bold-6d" x="727.832031"/>
      <use xlink:href="#DejaVuSans-Bold-73" x="832.03125"/>
     </g>
    </g>
   </g>
  </g>
 </g>
 <defs>
  <clipPath id="p870cf6150c">
   <rect x="144" y="77.76" width="892.8" height="498.96"/>
  </clipPath>
 </defs>
</svg>
